<svg width="16" height="16" viewBox="0 0 16 16" fill="none" xmlns="http://www.w3.org/2000/svg">
<g clip-path="url(#clip0_100_21444)">
<path d="M2.38602 14.1307H11.892L11.438 12.6607L12.524 13.5927L13.5194 14.4847L15.3327 16V1.65C15.2873 0.758 14.5193 0 13.5673 0L2.38935 0.002C1.43802 0.002 0.666016 0.761333 0.666016 1.65333V12.48C0.666016 13.4207 1.43668 14.1307 2.38602 14.1307ZM9.41802 3.78867L9.39602 3.79667L9.40402 3.78867H9.41802ZM4.33068 4.63467C5.55268 3.74533 6.68535 3.788 6.68535 3.788L6.77668 3.878C5.28135 4.23467 4.60335 4.90267 4.60335 4.90267C4.60335 4.90267 4.78468 4.814 5.10135 4.67867C7.11535 3.88667 9.31468 3.944 11.3507 4.94667C11.3507 4.94667 10.6713 4.322 9.26802 3.922L9.39202 3.8C9.58602 3.80067 10.6127 3.83667 11.7113 4.64C11.7113 4.64 12.9407 6.74 12.9407 9.32C12.9 9.27067 12.178 10.4307 10.32 10.4707C10.32 10.4707 10.0053 10.1147 9.78135 9.804C10.868 9.492 11.2747 8.868 11.2747 8.868C10.918 9.09267 10.5927 9.226 10.3287 9.35933C9.92268 9.538 9.51602 9.626 9.11002 9.716C7.18735 10.028 6.10802 9.506 5.08802 9.092L4.73935 8.91467C4.73935 8.91467 5.14535 9.53867 6.18868 9.85067C5.91468 10.1633 5.64335 10.5187 5.64335 10.5187C3.78602 10.4747 3.10868 9.31467 3.10868 9.31467C3.10868 6.73067 4.33068 4.63467 4.33068 4.63467Z" fill="#8C8C8C"/>
<path d="M9.53773 8.51379C10.0117 8.51379 10.3977 8.1138 10.3977 7.62047C10.3977 7.13047 10.0137 6.73047 9.53773 6.73047V6.73247C9.06573 6.73247 8.67907 7.13113 8.67773 7.62447C8.67773 8.1138 9.06373 8.51379 9.53773 8.51379Z" fill="#8C8C8C"/>
<path d="M6.45961 8.51379C6.9336 8.51379 7.3196 8.1138 7.3196 7.62047C7.3196 7.13047 6.93627 6.73047 6.46227 6.73047L6.45961 6.73247C5.98561 6.73247 5.59961 7.13113 5.59961 7.62447C5.59961 8.1138 5.98561 8.51379 6.45961 8.51379Z" fill="#8C8C8C"/>
</g>
<defs>
<clipPath id="clip0_100_21444">
<rect width="16" height="16" fill="white"/>
</clipPath>
</defs>
</svg>
