<svg width="16" height="16" viewBox="0 0 16 16" fill="none" xmlns="http://www.w3.org/2000/svg">
<path d="M14.9958 13.9998V13.9992H14.9993V8.86472C14.9993 6.35289 14.4585 4.41797 11.522 4.41797C10.1103 4.41797 9.16301 5.19264 8.77626 5.92705H8.73542V4.65247H5.95117V13.9992H8.85034V9.37106C8.85034 8.15247 9.08134 6.97414 10.5904 6.97414C12.0773 6.97414 12.0995 8.3648 12.0995 9.44922V13.9998H14.9958Z" fill="#8C8C8C"/>
<path d="M1.23047 4.65332H4.13314V14.0001H1.23047V4.65332Z" fill="#8C8C8C"/>
<path d="M2.68117 0C1.75308 0 1 0.753084 1 1.68117C1 2.60925 1.75308 3.37809 2.68117 3.37809C3.60925 3.37809 4.36233 2.60925 4.36233 1.68117C4.36175 0.753084 3.60867 0 2.68117 0V0Z" fill="#8C8C8C"/>
</svg>
